<svg id="visual" viewBox="0 0 1000 600" width="1000" height="600" xmlns="http://www.w3.org/2000/svg" xmlns:xlink="http://www.w3.org/1999/xlink" version="1.1"><rect x="0" y="0" width="1000" height="600" fill="#0f0f0f"></rect><path d="M0 343L15.2 359.2C30.3 375.3 60.7 407.7 91 417.5C121.3 427.3 151.7 414.7 182 399.7C212.3 384.7 242.7 367.3 273 377C303.3 386.7 333.7 423.3 364 430.7C394.3 438 424.7 416 454.8 414C485 412 515 430 545.2 436.7C575.3 443.3 605.7 438.7 636 426.5C666.3 414.3 696.7 394.7 727 379.8C757.3 365 787.7 355 818 360.8C848.3 366.7 878.7 388.3 909 394.8C939.3 401.3 969.7 392.7 984.8 388.3L1000 384L1000 601L984.8 601C969.7 601 939.3 601 909 601C878.7 601 848.3 601 818 601C787.7 601 757.3 601 727 601C696.7 601 666.3 601 636 601C605.7 601 575.3 601 545.2 601C515 601 485 601 454.8 601C424.7 601 394.3 601 364 601C333.7 601 303.3 601 273 601C242.7 601 212.3 601 182 601C151.7 601 121.3 601 91 601C60.7 601 30.3 601 15.2 601L0 601Z" fill="#e55566"></path><path d="M0 462L15.2 466.7C30.3 471.3 60.7 480.7 91 489.8C121.3 499 151.7 508 182 493.8C212.3 479.7 242.7 442.3 273 429.2C303.3 416 333.7 427 364 446.2C394.3 465.3 424.7 492.7 454.8 505.3C485 518 515 516 545.2 504.8C575.3 493.7 605.7 473.3 636 464.3C666.3 455.3 696.7 457.7 727 451.5C757.3 445.3 787.7 430.7 818 437.5C848.3 444.3 878.7 472.7 909 485C939.3 497.3 969.7 493.7 984.8 491.8L1000 490L1000 601L984.8 601C969.7 601 939.3 601 909 601C878.7 601 848.3 601 818 601C787.7 601 757.3 601 727 601C696.7 601 666.3 601 636 601C605.7 601 575.3 601 545.2 601C515 601 485 601 454.8 601C424.7 601 394.3 601 364 601C333.7 601 303.3 601 273 601C242.7 601 212.3 601 182 601C151.7 601 121.3 601 91 601C60.7 601 30.3 601 15.2 601L0 601Z" fill="#e4495a"></path><path d="M0 573L15.2 559.2C30.3 545.3 60.7 517.7 91 508C121.3 498.3 151.7 506.7 182 509.7C212.3 512.7 242.7 510.3 273 505.8C303.3 501.3 333.7 494.7 364 494.7C394.3 494.7 424.7 501.3 454.8 508.3C485 515.3 515 522.7 545.2 531.8C575.3 541 605.7 552 636 547.3C666.3 542.7 696.7 522.3 727 519.7C757.3 517 787.7 532 818 537.5C848.3 543 878.7 539 909 535.7C939.3 532.3 969.7 529.7 984.8 528.3L1000 527L1000 601L984.8 601C969.7 601 939.3 601 909 601C878.7 601 848.3 601 818 601C787.7 601 757.3 601 727 601C696.7 601 666.3 601 636 601C605.7 601 575.3 601 545.2 601C515 601 485 601 454.8 601C424.7 601 394.3 601 364 601C333.7 601 303.3 601 273 601C242.7 601 212.3 601 182 601C151.7 601 121.3 601 91 601C60.7 601 30.3 601 15.2 601L0 601Z" fill="#e23b4e"></path></svg>