<svg id="visual" viewBox="0 0 1000 400" width="1000" height="400" xmlns="http://www.w3.org/2000/svg" xmlns:xlink="http://www.w3.org/1999/xlink" version="1.1"><rect x="0" y="0" width="1000" height="400" fill="#f0f0f0"></rect><path d="M0 247L11.2 254.7C22.3 262.3 44.7 277.7 66.8 277.7C89 277.7 111 262.3 133.2 260.8C155.3 259.3 177.7 271.7 200 277.2C222.3 282.7 244.7 281.3 266.8 274.2C289 267 311 254 333.2 249.2C355.3 244.3 377.7 247.7 400 253.5C422.3 259.3 444.7 267.7 466.8 274.5C489 281.3 511 286.7 533.2 285.3C555.3 284 577.7 276 600 275.8C622.3 275.7 644.7 283.3 666.8 280.7C689 278 711 265 733.2 260.7C755.3 256.3 777.7 260.7 800 257.7C822.3 254.7 844.7 244.3 866.8 246.2C889 248 911 262 933.2 270.5C955.3 279 977.7 282 988.8 283.5L1000 285L1000 401L988.8 401C977.7 401 955.3 401 933.2 401C911 401 889 401 866.8 401C844.7 401 822.3 401 800 401C777.7 401 755.3 401 733.2 401C711 401 689 401 666.8 401C644.7 401 622.3 401 600 401C577.7 401 555.3 401 533.2 401C511 401 489 401 466.8 401C444.7 401 422.3 401 400 401C377.7 401 355.3 401 333.2 401C311 401 289 401 266.8 401C244.7 401 222.3 401 200 401C177.7 401 155.3 401 133.2 401C111 401 89 401 66.8 401C44.7 401 22.3 401 11.2 401L0 401Z" fill="#ef7180"></path><path d="M0 315L11.2 315.3C22.3 315.7 44.7 316.3 66.8 307.2C89 298 111 279 133.2 268.5C155.3 258 177.7 256 200 259.7C222.3 263.3 244.7 272.7 266.8 281.8C289 291 311 300 333.2 296.8C355.3 293.7 377.7 278.3 400 271C422.3 263.7 444.7 264.3 466.8 268.3C489 272.3 511 279.7 533.2 279.3C555.3 279 577.7 271 600 266.2C622.3 261.3 644.7 259.7 666.8 262.8C689 266 711 274 733.2 280.8C755.3 287.7 777.7 293.3 800 295.2C822.3 297 844.7 295 866.8 287.8C889 280.7 911 268.3 933.2 268.8C955.3 269.3 977.7 282.7 988.8 289.3L1000 296L1000 401L988.8 401C977.7 401 955.3 401 933.2 401C911 401 889 401 866.8 401C844.7 401 822.3 401 800 401C777.7 401 755.3 401 733.2 401C711 401 689 401 666.8 401C644.7 401 622.3 401 600 401C577.7 401 555.3 401 533.2 401C511 401 489 401 466.8 401C444.7 401 422.3 401 400 401C377.7 401 355.3 401 333.2 401C311 401 289 401 266.8 401C244.7 401 222.3 401 200 401C177.7 401 155.3 401 133.2 401C111 401 89 401 66.8 401C44.7 401 22.3 401 11.2 401L0 401Z" fill="#ed6776"></path><path d="M0 300L11.2 304C22.3 308 44.7 316 66.8 312.8C89 309.7 111 295.3 133.2 293.8C155.3 292.3 177.7 303.7 200 311.2C222.3 318.7 244.7 322.3 266.8 322.7C289 323 311 320 333.2 315.7C355.3 311.3 377.7 305.7 400 305.3C422.3 305 444.7 310 466.8 306.8C489 303.7 511 292.3 533.2 288.8C555.3 285.3 577.7 289.7 600 291.8C622.3 294 644.7 294 666.8 296.2C689 298.3 711 302.7 733.2 304.3C755.3 306 777.7 305 800 309.2C822.3 313.3 844.7 322.7 866.8 324.5C889 326.3 911 320.7 933.2 318.8C955.3 317 977.7 319 988.8 320L1000 321L1000 401L988.8 401C977.7 401 955.3 401 933.2 401C911 401 889 401 866.8 401C844.7 401 822.3 401 800 401C777.7 401 755.3 401 733.2 401C711 401 689 401 666.8 401C644.7 401 622.3 401 600 401C577.7 401 555.3 401 533.2 401C511 401 489 401 466.8 401C444.7 401 422.3 401 400 401C377.7 401 355.3 401 333.2 401C311 401 289 401 266.8 401C244.7 401 222.3 401 200 401C177.7 401 155.3 401 133.2 401C111 401 89 401 66.8 401C44.7 401 22.3 401 11.2 401L0 401Z" fill="#ea5d6c"></path><path d="M0 307L11.2 312.5C22.3 318 44.7 329 66.8 335.8C89 342.7 111 345.3 133.2 344.3C155.3 343.3 177.7 338.7 200 336C222.3 333.3 244.7 332.7 266.8 332.5C289 332.3 311 332.7 333.2 331.8C355.3 331 377.7 329 400 324.5C422.3 320 444.7 313 466.8 310.8C489 308.7 511 311.3 533.2 315.8C555.3 320.3 577.7 326.7 600 333.2C622.3 339.7 644.7 346.3 666.8 349.5C689 352.7 711 352.3 733.2 346.3C755.3 340.3 777.7 328.7 800 324.2C822.3 319.7 844.7 322.3 866.8 321.2C889 320 911 315 933.2 315C955.3 315 977.7 320 988.8 322.5L1000 325L1000 401L988.8 401C977.7 401 955.3 401 933.2 401C911 401 889 401 866.8 401C844.7 401 822.3 401 800 401C777.7 401 755.3 401 733.2 401C711 401 689 401 666.8 401C644.7 401 622.3 401 600 401C577.7 401 555.3 401 533.2 401C511 401 489 401 466.8 401C444.7 401 422.3 401 400 401C377.7 401 355.3 401 333.2 401C311 401 289 401 266.8 401C244.7 401 222.3 401 200 401C177.7 401 155.3 401 133.2 401C111 401 89 401 66.8 401C44.7 401 22.3 401 11.2 401L0 401Z" fill="#e85362"></path><path d="M0 339L11.2 339.2C22.3 339.3 44.7 339.7 66.8 343.2C89 346.7 111 353.3 133.2 357C155.3 360.7 177.7 361.3 200 362.7C222.3 364 244.7 366 266.8 366.7C289 367.3 311 366.7 333.2 360.7C355.3 354.7 377.7 343.3 400 338.7C422.3 334 444.7 336 466.8 340.2C489 344.3 511 350.7 533.2 353C555.3 355.3 577.7 353.7 600 351.8C622.3 350 644.7 348 666.8 348.2C689 348.3 711 350.7 733.2 354C755.3 357.3 777.7 361.7 800 360.7C822.3 359.7 844.7 353.3 866.8 350C889 346.7 911 346.3 933.2 345.7C955.3 345 977.7 344 988.8 343.5L1000 343L1000 401L988.8 401C977.7 401 955.3 401 933.2 401C911 401 889 401 866.8 401C844.7 401 822.3 401 800 401C777.7 401 755.3 401 733.2 401C711 401 689 401 666.8 401C644.7 401 622.3 401 600 401C577.7 401 555.3 401 533.2 401C511 401 489 401 466.8 401C444.7 401 422.3 401 400 401C377.7 401 355.3 401 333.2 401C311 401 289 401 266.8 401C244.7 401 222.3 401 200 401C177.7 401 155.3 401 133.2 401C111 401 89 401 66.8 401C44.7 401 22.3 401 11.2 401L0 401Z" fill="#e54758"></path><path d="M0 370L11.2 372.2C22.3 374.3 44.7 378.7 66.8 379C89 379.3 111 375.7 133.2 371.7C155.3 367.7 177.7 363.3 200 362.8C222.3 362.3 244.7 365.7 266.8 370C289 374.3 311 379.7 333.2 380.2C355.3 380.7 377.7 376.3 400 372.8C422.3 369.3 444.7 366.7 466.8 368.2C489 369.7 511 375.3 533.2 376.7C555.3 378 577.7 375 600 370.7C622.3 366.3 644.7 360.7 666.8 358.5C689 356.3 711 357.7 733.2 362.5C755.3 367.3 777.7 375.7 800 375.7C822.3 375.7 844.7 367.3 866.8 365.8C889 364.3 911 369.7 933.2 371.2C955.3 372.7 977.7 370.3 988.8 369.2L1000 368L1000 401L988.8 401C977.7 401 955.3 401 933.2 401C911 401 889 401 866.8 401C844.7 401 822.3 401 800 401C777.7 401 755.3 401 733.2 401C711 401 689 401 666.8 401C644.7 401 622.3 401 600 401C577.7 401 555.3 401 533.2 401C511 401 489 401 466.8 401C444.7 401 422.3 401 400 401C377.7 401 355.3 401 333.2 401C311 401 289 401 266.8 401C244.7 401 222.3 401 200 401C177.7 401 155.3 401 133.2 401C111 401 89 401 66.8 401C44.7 401 22.3 401 11.2 401L0 401Z" fill="#e23b4e"></path></svg>