<svg id="visual" viewBox="0 0 1000 600" width="1000" height="600" xmlns="http://www.w3.org/2000/svg" xmlns:xlink="http://www.w3.org/1999/xlink" version="1.1"><rect x="0" y="0" width="1000" height="600" fill="#f0f0f0"></rect><path d="M0 97L10.5 94C21 91 42 85 62.8 86.2C83.7 87.3 104.3 95.7 125.2 99.7C146 103.7 167 103.3 187.8 100.7C208.7 98 229.3 93 250.2 93.7C271 94.3 292 100.7 312.8 100C333.7 99.3 354.3 91.7 375.2 85.2C396 78.7 417 73.3 437.8 76.3C458.7 79.3 479.3 90.7 500.2 92.8C521 95 542 88 562.8 81.8C583.7 75.7 604.3 70.3 625.2 73.7C646 77 667 89 687.8 88.7C708.7 88.3 729.3 75.7 750.2 71.5C771 67.3 792 71.7 812.8 73.8C833.7 76 854.3 76 875.2 74.7C896 73.3 917 70.7 937.8 69.8C958.7 69 979.3 70 989.7 70.5L1000 71L1000 0L989.7 0C979.3 0 958.7 0 937.8 0C917 0 896 0 875.2 0C854.3 0 833.7 0 812.8 0C792 0 771 0 750.2 0C729.3 0 708.7 0 687.8 0C667 0 646 0 625.2 0C604.3 0 583.7 0 562.8 0C542 0 521 0 500.2 0C479.3 0 458.7 0 437.8 0C417 0 396 0 375.2 0C354.3 0 333.7 0 312.8 0C292 0 271 0 250.2 0C229.3 0 208.7 0 187.8 0C167 0 146 0 125.2 0C104.3 0 83.7 0 62.8 0C42 0 21 0 10.5 0L0 0Z" fill="#e55566"></path><path d="M0 33L10.5 40.3C21 47.7 42 62.3 62.8 62.3C83.7 62.3 104.3 47.7 125.2 47C146 46.3 167 59.7 187.8 63C208.7 66.3 229.3 59.7 250.2 59.3C271 59 292 65 312.8 63C333.7 61 354.3 51 375.2 50.3C396 49.7 417 58.3 437.8 62.8C458.7 67.3 479.3 67.7 500.2 64.5C521 61.3 542 54.7 562.8 52.2C583.7 49.7 604.3 51.3 625.2 50.3C646 49.3 667 45.7 687.8 46.5C708.7 47.3 729.3 52.7 750.2 52C771 51.3 792 44.7 812.8 46.3C833.7 48 854.3 58 875.2 60.3C896 62.7 917 57.3 937.8 53C958.7 48.7 979.3 45.3 989.7 43.7L1000 42L1000 0L989.7 0C979.3 0 958.7 0 937.8 0C917 0 896 0 875.2 0C854.3 0 833.7 0 812.8 0C792 0 771 0 750.2 0C729.3 0 708.7 0 687.8 0C667 0 646 0 625.2 0C604.3 0 583.7 0 562.8 0C542 0 521 0 500.2 0C479.3 0 458.7 0 437.8 0C417 0 396 0 375.2 0C354.3 0 333.7 0 312.8 0C292 0 271 0 250.2 0C229.3 0 208.7 0 187.8 0C167 0 146 0 125.2 0C104.3 0 83.7 0 62.8 0C42 0 21 0 10.5 0L0 0Z" fill="#e4495a"></path><path d="M0 35L10.5 37C21 39 42 43 62.8 44.3C83.7 45.7 104.3 44.3 125.2 42.2C146 40 167 37 187.8 34.3C208.7 31.7 229.3 29.3 250.2 27.7C271 26 292 25 312.8 27.3C333.7 29.7 354.3 35.3 375.2 37.3C396 39.3 417 37.7 437.8 38.3C458.7 39 479.3 42 500.2 40.3C521 38.7 542 32.3 562.8 28.5C583.7 24.7 604.3 23.3 625.2 22.2C646 21 667 20 687.8 23.7C708.7 27.3 729.3 35.7 750.2 40.2C771 44.7 792 45.3 812.8 39.8C833.7 34.3 854.3 22.7 875.2 20.5C896 18.3 917 25.7 937.8 29.2C958.7 32.7 979.3 32.3 989.7 32.2L1000 32L1000 0L989.7 0C979.3 0 958.7 0 937.8 0C917 0 896 0 875.2 0C854.3 0 833.7 0 812.8 0C792 0 771 0 750.2 0C729.3 0 708.7 0 687.8 0C667 0 646 0 625.2 0C604.3 0 583.7 0 562.8 0C542 0 521 0 500.2 0C479.3 0 458.7 0 437.8 0C417 0 396 0 375.2 0C354.3 0 333.7 0 312.8 0C292 0 271 0 250.2 0C229.3 0 208.7 0 187.8 0C167 0 146 0 125.2 0C104.3 0 83.7 0 62.8 0C42 0 21 0 10.5 0L0 0Z" fill="#e23b4e"></path></svg>